<svg width="39" height="39" viewBox="0 0 39 39" fill="none" xmlns="http://www.w3.org/2000/svg">
<path d="M13.363 24.7379C13.768 23.1329 12.793 21.4969 11.188 21.0919C9.58399 20.6829 7.94799 21.6609 7.54199 23.2669C7.13699 24.8719 8.11199 26.5079 9.71699 26.9129C9.96299 26.9749 10.209 27.0049 10.452 27.0049C11.794 27.0049 13.02 26.0979 13.363 24.7379ZM10.035 25.6529C9.12499 25.4229 8.57199 24.4949 8.80199 23.5849C8.99699 22.8139 9.69199 22.2999 10.452 22.2999C10.59 22.2999 10.729 22.3169 10.869 22.3519C11.779 22.5819 12.332 23.5099 12.102 24.4199C11.872 25.3299 10.946 25.8849 10.035 25.6529ZM31.447 9.47393C32.136 9.06293 32.623 8.40893 32.82 7.63093C33.225 6.02693 32.249 4.39093 30.644 3.98493C29.866 3.78693 29.06 3.90593 28.371 4.31693C27.682 4.72793 27.195 5.38193 26.998 6.15993C26.801 6.93793 26.919 7.74393 27.331 8.43293C27.742 9.12093 28.396 9.60893 29.174 9.80493C29.42 9.86693 29.668 9.89793 29.915 9.89793C30.449 9.89793 30.976 9.75493 31.447 9.47393ZM29.492 8.54593C29.051 8.43493 28.68 8.15793 28.447 7.76793C28.214 7.37793 28.147 6.91893 28.259 6.47893C28.37 6.03893 28.646 5.66693 29.037 5.43393C29.304 5.27493 29.602 5.19293 29.906 5.19293C30.046 5.19293 30.187 5.21093 30.326 5.24593C31.236 5.47593 31.789 6.40293 31.559 7.31293C31.448 7.75293 31.171 8.12493 30.781 8.35793C30.391 8.59093 29.934 8.65793 29.492 8.54593ZM29.909 1.73193C26.816 1.73193 24.301 4.24893 24.301 7.34093C24.301 9.97793 28.236 17.1689 29.185 18.8659C29.098 19.0699 29.012 19.2739 28.92 19.4749C28.771 19.8009 28.914 20.1869 29.24 20.3359C29.327 20.3759 29.42 20.3959 29.51 20.3959C29.757 20.3959 29.992 20.2549 30.101 20.0159C30.237 19.7199 30.366 19.4209 30.491 19.1189C31.062 18.1099 35.517 10.1469 35.517 7.33993C35.518 4.24893 33.002 1.73193 29.909 1.73193ZM29.909 3.03293C32.284 3.03293 34.218 4.96593 34.218 7.34193C34.218 9.19593 31.486 14.5959 29.909 17.4899C28.332 14.5949 25.6 9.19593 25.6 7.34193C25.601 4.96593 27.534 3.03293 29.909 3.03293ZM27.002 24.1019C27.289 24.3179 27.347 24.7249 27.131 25.0119C26.743 25.5289 26.332 26.0359 25.91 26.5199C25.782 26.6669 25.601 26.7439 25.42 26.7439C25.269 26.7439 25.117 26.6909 24.993 26.5839C24.722 26.3479 24.694 25.9379 24.931 25.6669C25.332 25.2059 25.723 24.7239 26.093 24.2309C26.306 23.9429 26.714 23.8849 27.002 24.1019ZM29.232 21.7529C28.924 22.3149 28.59 22.8759 28.24 23.4199C28.116 23.6129 27.907 23.7189 27.693 23.7189C27.572 23.7189 27.45 23.6849 27.342 23.6149C27.04 23.4209 26.953 23.0179 27.147 22.7169C27.48 22.1979 27.798 21.6639 28.091 21.1279C28.264 20.8139 28.659 20.6989 28.973 20.8699C29.289 21.0429 29.405 21.4379 29.232 21.7529ZM18.637 31.6649C18.806 31.9809 18.687 32.3749 18.37 32.5449L16.684 33.4259C16.588 33.4769 16.485 33.4999 16.384 33.4999C16.15 33.4999 15.923 33.3719 15.807 33.1489C15.641 32.8309 15.765 32.4379 16.083 32.2729L17.756 31.3979C18.073 31.2319 18.468 31.3489 18.637 31.6649ZM24.586 27.0169C24.839 27.2719 24.838 27.6829 24.583 27.9359C24.129 28.3869 23.65 28.8309 23.16 29.2519C23.037 29.3579 22.886 29.4099 22.736 29.4099C22.553 29.4099 22.372 29.3329 22.243 29.1829C22.009 28.9119 22.039 28.5009 22.311 28.2669C22.778 27.8649 23.234 27.4429 23.667 27.0129C23.921 26.7599 24.333 26.7629 24.586 27.0169ZM15.281 33.4239C15.447 33.7419 15.323 34.1349 15.004 34.2999L13.324 35.1739C13.228 35.2249 13.126 35.2479 13.025 35.2479C12.79 35.2479 12.564 35.1199 12.448 34.8969C12.282 34.5789 12.406 34.1859 12.725 34.0209L14.405 33.1469C14.722 32.9789 15.116 33.1049 15.281 33.4239ZM21.778 29.5559C21.992 29.8439 21.931 30.2509 21.643 30.4649C21.13 30.8449 20.592 31.2139 20.045 31.5629C19.937 31.6319 19.816 31.6659 19.696 31.6659C19.481 31.6659 19.271 31.5599 19.147 31.3649C18.954 31.0609 19.043 30.6599 19.346 30.4679C19.868 30.1349 20.38 29.7829 20.868 29.4209C21.158 29.2079 21.565 29.2669 21.778 29.5559ZM11.733 34.9639C13.152 32.3499 16.06 26.7179 16.06 24.4489C16.06 21.3569 13.544 18.8409 10.452 18.8409C7.35999 18.8409 4.84399 21.3579 4.84399 24.4489C4.84399 27.2779 9.37099 35.3469 9.88699 36.2589C9.93299 36.3399 10.004 36.3979 10.077 36.4509C10.095 36.4639 10.104 36.4869 10.123 36.4979C10.222 36.5559 10.335 36.5889 10.453 36.5889C10.554 36.5889 10.657 36.5659 10.753 36.5149L11.64 36.0529C11.958 35.8879 12.082 35.4949 11.916 35.1769C11.87 35.0889 11.806 35.0199 11.733 34.9639ZM10.452 20.1409C12.827 20.1409 14.761 22.0739 14.761 24.4489C14.761 26.3039 12.029 31.7039 10.452 34.5979C8.87499 31.7029 6.14299 26.3039 6.14299 24.4489C6.14399 22.0729 8.07699 20.1409 10.452 20.1409Z" fill="white"/>
</svg>
